<mxfile host="app.diagrams.net" modified="2023-07-11T04:57:50.094Z" agent="Mozilla/5.0 (X11; Linux x86_64) AppleWebKit/537.36 (KHTML, like Gecko) Chrome/114.0.0.0 Safari/537.36 Edg/114.0.1823.67" version="21.6.1" etag="AJmWiFfHYM1Hw7xkTv_8" type="github">
  <diagram name="Page-1" id="_d05rYt88-zqauWYTsoC">
    <mxGraphModel>
      <root>
        <mxCell id="0" />
        <mxCell id="1" parent="0" />
      </root>
    </mxGraphModel>
  </diagram>
</mxfile>
